<?xml version="1.0" encoding="UTF-8" standalone="no"?>
<!-- Generator: Adobe Illustrator 15.1.0, SVG Export Plug-In . SVG Version: 6.00 Build 0)  -->

<svg
   xmlns:dc="http://purl.org/dc/elements/1.1/"
   xmlns:cc="http://creativecommons.org/ns#"
   xmlns:rdf="http://www.w3.org/1999/02/22-rdf-syntax-ns#"
   xmlns:svg="http://www.w3.org/2000/svg"
   xmlns="http://www.w3.org/2000/svg"
   xmlns:sodipodi="http://sodipodi.sourceforge.net/DTD/sodipodi-0.dtd"
   xmlns:inkscape="http://www.inkscape.org/namespaces/inkscape"
   version="1.1"
   x="0px"
   y="0px"
   width="32px"
   height="32px"
   viewBox="0 0 32 32"
   style="enable-background:new 0 0 32 32;"
   xml:space="preserve"
   id="svg2"
   inkscape:version="0.48.2 r9819"
   sodipodi:docname="pen.svg"
   inkscape:export-filename="/home/ryan/Projects/Trustmaster/app/assets/images/icons/pen.png"
   inkscape:export-xdpi="56.25"
   inkscape:export-ydpi="56.25"><metadata
   id="metadata16"><rdf:RDF><cc:Work
       rdf:about=""><dc:format>image/svg+xml</dc:format><dc:type
         rdf:resource="http://purl.org/dc/dcmitype/StillImage" /><dc:title></dc:title></cc:Work></rdf:RDF></metadata><defs
   id="defs14" /><sodipodi:namedview
   pagecolor="#ffffff"
   bordercolor="#666666"
   borderopacity="1"
   objecttolerance="10"
   gridtolerance="10"
   guidetolerance="10"
   inkscape:pageopacity="0"
   inkscape:pageshadow="2"
   inkscape:window-width="1280"
   inkscape:window-height="1002"
   id="namedview12"
   showgrid="false"
   inkscape:zoom="7.375"
   inkscape:cx="-4.1355932"
   inkscape:cy="16"
   inkscape:window-x="0"
   inkscape:window-y="0"
   inkscape:window-maximized="1"
   inkscape:current-layer="svg2" />
<rect
   style="fill:#ffffff;fill-opacity:1;stroke:none"
   id="rect3782"
   width="9.7627115"
   height="8.9491529"
   x="2.4406779"
   y="20.338984" /><path
   sodipodi:type="arc"
   style="fill:#ffffff;fill-opacity:1;stroke:none"
   id="path3780"
   sodipodi:cx="24"
   sodipodi:cy="7.7288136"
   sodipodi:rx="5.1525426"
   sodipodi:ry="5.1525426"
   d="m 29.152543,7.7288136 a 5.1525426,5.1525426 0 1 1 -10.305086,0 5.1525426,5.1525426 0 1 1 10.305086,0 z" /><g
   id="Layer_1">
</g>
<g
   id="pen_x5F_alt_x5F_fill"
   style="fill:#f0a400;fill-opacity:1">
	<g
   id="g6"
   style="fill:#f0a400;fill-opacity:1">
		<g
   id="g8"
   style="fill:#f0a400;fill-opacity:1">
			<path
   style="fill:#f0a400;fill-opacity:1"
   d="M29.656,2.344c-3.121-3.125-8.191-3.125-11.312,0L0.031,20.656L0,32h11.312l18.344-18.344     C32.781,10.531,32.781,5.469,29.656,2.344z M9.613,28H3.957v-5.688c1.562-1.562,4.094-1.562,5.656,0S11.176,26.438,9.613,28z      M26.754,10.828l-5.656-5.656c1.562-1.562,4.094-1.562,5.656,0S28.316,9.266,26.754,10.828z"
   id="path10" />
		</g>
	</g>
</g>
</svg>