<?xml version="1.0" encoding="UTF-8" standalone="no"?>
<!-- Created with Inkscape (http://www.inkscape.org/) -->

<svg
   xmlns:dc="http://purl.org/dc/elements/1.1/"
   xmlns:cc="http://creativecommons.org/ns#"
   xmlns:rdf="http://www.w3.org/1999/02/22-rdf-syntax-ns#"
   xmlns:svg="http://www.w3.org/2000/svg"
   xmlns="http://www.w3.org/2000/svg"
   xmlns:sodipodi="http://sodipodi.sourceforge.net/DTD/sodipodi-0.dtd"
   xmlns:inkscape="http://www.inkscape.org/namespaces/inkscape"
   width="54"
   height="54"
   id="svg3991"
   version="1.1"
   inkscape:version="0.48.2 r9819"
   sodipodi:docname="trust-master-shield.svg"
   inkscape:export-filename="/home/ryan/Projects/Trustmaster/app/assets/images/icons/trust-master-shield_trans-black_16.png"
   inkscape:export-xdpi="26.67"
   inkscape:export-ydpi="26.67">
  <defs
     id="defs3993" />
  <sodipodi:namedview
     id="base"
     pagecolor="#ffffff"
     bordercolor="#666666"
     borderopacity="1.0"
     inkscape:pageopacity="0.0"
     inkscape:pageshadow="2"
     inkscape:zoom="7.7343246"
     inkscape:cx="30.933869"
     inkscape:cy="36.913366"
     inkscape:document-units="px"
     inkscape:current-layer="g4541"
     showgrid="false"
     fit-margin-top="0"
     fit-margin-left="0"
     fit-margin-right="0"
     fit-margin-bottom="0"
     borderlayer="true"
     inkscape:showpageshadow="false"
     inkscape:window-width="1330"
     inkscape:window-height="746"
     inkscape:window-x="36"
     inkscape:window-y="1024"
     inkscape:window-maximized="1" />
  <metadata
     id="metadata3996">
    <rdf:RDF>
      <cc:Work
         rdf:about="">
        <dc:format>image/svg+xml</dc:format>
        <dc:type
           rdf:resource="http://purl.org/dc/dcmitype/StillImage" />
        <dc:title></dc:title>
      </cc:Work>
    </rdf:RDF>
  </metadata>
  <g
     inkscape:label="Layer 1"
     inkscape:groupmode="layer"
     id="layer1"
     transform="translate(-226.20904,-295.27553)">
    <g
       id="g4541">
      <path
         style="opacity:1;fill:#ffffff;fill-opacity:1;stroke:none"
         d="M 27.125 7.90625 C 22.47173 11.61298 17.98157 15.58885 13.40625 19.8125 L 13.40625 36.9375 C 22.55688 35.90202 31.69314 35.90202 40.84375 36.9375 L 40.84375 19.8125 C 36.26845 15.58885 31.78001 11.61298 27.125 7.90625 z "
         transform="translate(226.20904,295.27553)"
         id="rect2984" />
      <path
         d="m 267.06793,332.19775 c -9.15061,-1.03548 -18.30122,-1.03548 -27.45185,0 l 0,-17.11695 c 4.57532,-4.22365 9.07267,-8.19017 13.72594,-11.8969 4.65501,3.70673 9.15061,7.67325 13.72591,11.8969 l 0,17.11695 z m 8.59481,-31.7573 c 0,0 -0.38359,-0.24194 -0.57841,-0.35815 -10.62469,-6.35711 -32.92857,-6.53519 -43.59907,0.0447 -0.24592,0.15007 -0.71596,0.46109 -0.71596,0.46109 l -0.20554,21.3795 c 0,0 0,0.79107 0.004,1.17961 0.0501,5.60227 0.66842,10.63145 2.97037,14.19772 4.18463,6.47622 12.59637,8.24093 19.67739,11.953 9.70395,-4.68433 21.50284,-7.40913 22.44764,-20.51559 0.13397,-1.89272 0.19116,-5.89611 0.19116,-5.89611 l -0.19116,-22.44582"
         style="fill:#000000;fill-opacity:1;fill-rule:nonzero;stroke:none;opacity:0.5"
         id="path88"
         inkscape:connector-curvature="0" />
    </g>
  </g>
</svg>
