<?xml version="1.0" encoding="UTF-8" standalone="no"?>
<!-- Generator: Adobe Illustrator 15.1.0, SVG Export Plug-In . SVG Version: 6.00 Build 0)  -->

<svg
   xmlns:dc="http://purl.org/dc/elements/1.1/"
   xmlns:cc="http://creativecommons.org/ns#"
   xmlns:rdf="http://www.w3.org/1999/02/22-rdf-syntax-ns#"
   xmlns:svg="http://www.w3.org/2000/svg"
   xmlns="http://www.w3.org/2000/svg"
   xmlns:sodipodi="http://sodipodi.sourceforge.net/DTD/sodipodi-0.dtd"
   xmlns:inkscape="http://www.inkscape.org/namespaces/inkscape"
   version="1.1"
   x="0px"
   y="0px"
   width="32"
   height="32"
   viewBox="0 0 32 32"
   xml:space="preserve"
   id="svg2"
   inkscape:version="0.48.2 r9819"
   sodipodi:docname="user.svg"
   inkscape:export-filename="/home/ryan/Projects/Trustmaster/app/assets/images/icons/user_trans-black_16.png"
   inkscape:export-xdpi="45"
   inkscape:export-ydpi="45"><metadata
   id="metadata16"><rdf:RDF><cc:Work
       rdf:about=""><dc:format>image/svg+xml</dc:format><dc:type
         rdf:resource="http://purl.org/dc/dcmitype/StillImage" /><dc:title></dc:title></cc:Work></rdf:RDF></metadata><defs
   id="defs14" /><sodipodi:namedview
   pagecolor="#ffffff"
   bordercolor="#666666"
   borderopacity="1"
   objecttolerance="10"
   gridtolerance="10"
   guidetolerance="10"
   inkscape:pageopacity="0"
   inkscape:pageshadow="2"
   inkscape:window-width="640"
   inkscape:window-height="480"
   id="namedview12"
   showgrid="false"
   fit-margin-left="4"
   fit-margin-right="4"
   fit-margin-top="0"
   fit-margin-bottom="0"
   inkscape:zoom="7.375"
   inkscape:cx="16"
   inkscape:cy="16"
   inkscape:window-x="36"
   inkscape:window-y="0"
   inkscape:window-maximized="0"
   inkscape:current-layer="svg2" />
<g
   id="Layer_1"
   style="opacity:0.5"
   transform="translate(4,0)">
</g>
<g
   id="user"
   style="opacity:0.5"
   transform="translate(4,0)">
	<g
   id="g6">
		<path
   style="fill:#010101"
   d="M 12,16 C 5.375,16 0,21.375 0,28 c 0,2.211 1.789,4 4,4 h 16 c 2.211,0 4,-1.789 4,-4 0,-6.625 -5.375,-12 -12,-12 z"
   id="path8"
   inkscape:connector-curvature="0" />
		<circle
   style="fill:#010101"
   cx="12"
   cy="6"
   r="6"
   id="circle10"
   sodipodi:cx="12"
   sodipodi:cy="6"
   sodipodi:rx="6"
   sodipodi:ry="6"
   d="m 18,6 c 0,3.3137085 -2.686292,6 -6,6 C 8.6862915,12 6,9.3137085 6,6 6,2.6862915 8.6862915,0 12,0 c 3.313708,0 6,2.6862915 6,6 z" />
	</g>
</g>
</svg>